# xmcd
#
# Track frame offsets:
#	150
#	30365
#	48125
#	65567
#	87944
#	105213
#	123174
#	145123
#	177734
#	194784
#	215024
#	233231
#	246213
#	273979
#	281258
#	300548
#
# Disc length: 4206 seconds
#
# Revision: 0
# Processed by: cddbd v1.5.1PL0 Copyright (c) Steve Scherf et al.
# Submitted via: EasyCDDAExtractor 7.7.1.2
#
DISCID=e0106c10
DTITLE=Stillhouse Bottom Band - Hand Made
DYEAR=2001
DGENRE=Bluegrass
TTITLE0=Cindy
TTITLE1=Sugar Babe
TTITLE2=Waterbound
TTITLE3=Waiting for Nancy
TTITLE4=Spring Creek Gal
TTITLE5=Short Life of Trouble
TTITLE6=Julianne Johnson
TTITLE7=Milwaukee Blues
TTITLE8=Going Back to Fielden
TTITLE9=Rock the Cradle Joe
TTITLE10=Big Eyed Rabbit
TTITLE11=Cider
TTITLE12=John Brown's Dream
TTITLE13=Coal Creek March
TTITLE14=Fly Around
TTITLE15=Winders Slide
EXTD=
EXTT0=
EXTT1=
EXTT2=
EXTT3=
EXTT4=
EXTT5=
EXTT6=
EXTT7=
EXTT8=
EXTT9=
EXTT10=
EXTT11=
EXTT12=
EXTT13=
EXTT14=
EXTT15=
PLAYORDER=
